<?xml version="1.0" encoding="utf-8"?>
<!-- Generator: Adobe Illustrator 22.0.1, SVG Export Plug-In . SVG Version: 6.00 Build 0)  -->
<svg version="1.1" id="Capa_1" xmlns="http://www.w3.org/2000/svg" xmlns:xlink="http://www.w3.org/1999/xlink" x="0px" y="0px"
	 viewBox="0 0 512 512" style="enable-background:new 0 0 512 512;" xml:space="preserve">
<style type="text/css">
	.st0{fill:#FFFFFF;}
</style>
<g>
	<path class="st0" d="M256,49.5C142.1,49.5,49.5,142.1,49.5,256S142.1,462.5,256,462.5S462.5,369.9,462.5,256S369.9,49.5,256,49.5z
		 M256,446.6c-105.1,0-190.6-85.5-190.6-190.6S150.9,65.4,256,65.4S446.6,150.9,446.6,256S361.1,446.6,256,446.6z"/>
	<path class="st0" d="M355.3,248.1h-91.3v-87.4c0-4.4-3.6-7.9-7.9-7.9s-7.9,3.6-7.9,7.9v87.4h-91.3c-4.4,0-7.9,3.6-7.9,7.9
		s3.6,7.9,7.9,7.9h91.3v95.3c0,4.4,3.6,7.9,7.9,7.9s7.9-3.6,7.9-7.9v-95.3h91.3c4.4,0,7.9-3.6,7.9-7.9S359.7,248.1,355.3,248.1z"/>
</g>
</svg>
