<?xml version="1.0" encoding="utf-8"?>
<svg version="1.1" id="JustinLee" xmlns="http://www.w3.org/2000/svg" x="0px" y="0px"
	 viewBox="0 0 283.5 283.5" style="enable-background:new 0 0 283.5 283.5;" xml:space="preserve">
	<style type="text/css">
		.st0 {
            fill: #FFFFFF;
            stroke: #000000;
            stroke-miterlimit: 10;
        }
	</style>
	<g id="arm">
		<g>
			<path class="st0" d="M103.3,158c1.9,0,3.6,0.4,5.2,1c0.1,0,0.3,0.1,0.4,0.1c2.1,1.2,3.8,0.3,5.5-0.9c1.6-1.1,3.2-2.1,5-2.8
				c3.6-1.3,7.3-1.7,11.1-1.4c3.6,0.4,7,1.1,10.4,2.2c5.4,1.6,9.8,4.6,13.5,8.8c2.1,2.4,3.9,4.9,5.4,7.7c0.2,0.5,0.5,0.6,1,0.3
				c2.3-1.2,4.5-2.4,7-3.1c0.4-0.1,0.8-0.2,0.5-0.9c0.5,0.5,0.9,0.3,1.4,0.2c5-1.5,10-2.5,15.2-2.9c3.4-0.3,6.8-0.4,10.2-0.1
				c4,0.3,8,0.7,12,1.5c2.1,0.4,4.2,0.9,6.3,1.5c6.8,2,11.6,8.5,11.8,15.5c0.1,2.7-0.6,5.3-1.5,7.8c-1.7,4.8-3.4,9.6-5.2,14.3
				c-1.1,2.9-2.8,5.5-4.9,7.8c-2.7,3.1-6,5.5-9.8,7.2c-4.4,1.9-9,2.7-13.8,2.1c-3.2-0.4-6.3-1.3-9.3-2.6c-3.6-1.6-7.4-2.5-11.3-3.1
				c-2.9-0.4-5.8-0.7-8.7-0.7c-6.2,0.1-12.3-0.7-18.4-1.9c-6.4-1.3-12.5-3.2-18.6-5.4c-5.3-1.9-10.5-3.9-15.6-6.1
				c-5.6-2.4-11.2-4.8-16.7-7.3c-3.7-1.7-7.4-3.3-11.2-4.8c-1.9-0.8-3.6-1.8-5.5-2.5c-0.9-0.3-1.7-0.4-2.6-0.3
				c-3.1,0.4-5.9-0.2-8.1-2.5c-1.2-1.2-1.9-2.6-1.7-4.4c0.3-2.2-0.3-4.4-0.9-6.5c-1.2-4.3-2.2-8.6-2.4-13.1c0-0.8-0.2-1.5,0-2.3
				c0.1-0.3,0.1-0.7-0.5-0.4c0.8-1.2,0.6-2.5,0.6-3.8c0-0.4-0.1-0.7,0.1-1.1c0.2-0.3,0.3-0.8,0.3-1.2c0.8-5.5,2.7-10.7,4.7-15.8
				c1.5-3.8,3.1-7.6,5-11.2c1.8-3.5,3.8-6.8,6-10.1c3.8-5.6,8.2-10.6,12.5-15.7c3.4-4.1,6.8-8.3,9.8-12.8c3.9-5.8,8-11.3,12.2-16.9
				c3.4-4.6,6.7-9.2,9.6-14.2c0.5-0.9,1.2-1.8,1.9-2.7c1.2-1.4,2.7-2.3,4.5-2.8c5.3-1.3,10.7-2.2,16.1-2.9c3.1-0.4,6.1-0.8,9.2-1.1
				c4.5-0.4,8.9-0.7,13.4-0.6c3.8,0.1,5.2,1.7,6.3,5.8c0.7,2.7,0.6,5.6,0.5,8.4c-0.1,3.1-0.5,6.1-1.2,9.2c-0.6,2.4-1.3,4.7-3,6.5
				c-0.7,0.8-1.6,1.3-2.6,1.6c-0.5,0.1-0.6,0.3-0.3,0.8c1.5,2.3,1.7,4.9,1.6,7.6c0,0.6-0.2,1.3-0.5,1.8c-0.5,1.1-1.2,1.4-2.4,1.1
				c-1.8-0.5-3.4-1.4-5.1-2.2c-3.3-1.5-6.8-2.4-10.5-2.4c-4.3,0-7.6-1.8-10.2-5.1c-1-1.3-1.9-2.8-2.5-4.4c-0.9-2.4-3.7-3.3-5.9-1.8
				c-2.2,1.4-3.6,3.5-4.8,5.7c-2.8,5.2-4.5,10.7-6,16.4c-2,7.2-3.3,14.6-4.5,22c-0.7,4.6-1.4,9.3-2.2,13.9
				c-0.8,4.7-1.5,9.4-2.6,14.1c-0.7,3-1.5,6-2.8,8.8C104.6,156.2,104,157,103.3,158z"/>
		</g>
	</g>
</svg>
