<?xml version="1.0" encoding="utf-8"?>
<svg version="1.1" id="lixin" xmlns="http://www.w3.org/2000/svg" x="0px" y="0px"
	 viewBox="0 0 566.9 566.9" style="enable-background:new 0 0 566.9 566.9;" xml:space="preserve">
	<style type="text/css">
		.st0 {
			fill: #FFFFFF;
			stroke: #000000;
			stroke-width: 2;
			stroke-miterlimit: 10;
		}
	</style>
	<g id="foot2" transform="translate(182.11221,-249.3249)">
		<g>
			<path id="lixin" class="st0" d="M39.6,403.7c-6.4-24.4-116.3-19.8-93.3,38.7c4,10.1,15.2,40.6,15.2,40.6c0.1,0.2,0.6,2.3,1,4.5
			c0.4,2.2,1.1,5.3,1.6,6.8c2.3,6.7,5,37.2,4.3,48.7c-0.2,3.3-0.2,6.3,0,6.8c0.3,1.1-0.7,5.8-3.3,14.4c-2.5,8.3-4.1,18.9-4.1,26
			c0.1,9.4,3,14.5,12.2,21.3c4.5,3.3,11.8,6.2,18.4,7.1c5.4,0.8,15.3,0.9,17.6,0.3c1.1-0.3,2.2-0.4,2.5-0.3c0.3,0.1,2.3,0.2,4.4,0.1
			c2.1-0.1,5.9-0.3,8.3-0.4c2.5-0.1,5.2-0.5,6.1-0.8c2-0.7,9.2-1.2,14.9-0.9c2.4,0.1,4.9,0.2,5.7,0.2c3.6,0,5.2,0.1,10.2,0.9
			c3,0.4,10.6,1.8,17,2.9c6.4,1.2,13.7,2.3,16.2,2.6c2.5,0.3,12,1.6,21.1,2.9c9.1,1.3,18.5,2.6,20.8,2.9c4.6,0.5,9,1.4,18,3.7
			c8.7,2.2,20.8,4.3,23.5,4c0.7-0.1,1.6,0,2,0.2c1.6,0.7,10.8-0.6,15.2-2.1c7.6-2.6,9.3-3.3,9.1-3.8c-0.1-0.2-1.2-0.2-2.5,0.1
			c-1.3,0.3-2.4,0.4-2.5,0.1c-0.3-0.8,0.5-1.2,4.9-2.1c3.9-0.8,4.5-0.8,9.9,1c9.7,3.2,14.7,2.1,21.6-4.7c4.6-4.5,5.1-6.1,2.6-7.7
			c-1-0.6-3-2.5-4.3-4.1c-2.1-2.6-3-3.2-7.1-4.9c-4.1-1.7-5-1.9-7.4-1.3c-3.5,0.8-10.6,0.6-11.6-0.4c-1.3-1.3,0.2-2,2.8-1.4
			c2.8,0.6,6.7,0.5,7-0.3c0.2-0.6,5-0.4,8,0.3c3.2,0.7,7.3,3.7,9.7,6.9c2.7,3.7,6.4,5.9,8.6,5.2c2.8-1,5-2.9,8.5-7.3
			c4.1-5.3,4.2-6.3,0.6-8.4c-1.4-0.8-3.7-2.7-5-4.2c-2.3-2.6-2.8-2.8-8.8-4.8c-6.8-2.3-11.6-2.9-16.9-2c-3.6,0.6-8.6,0.6-9.8,0.1
			c-0.4-0.2-1-0.7-1.3-1.2c-1-1.5,1.3-2.2,3.8-1.2c1.4,0.6,4,0.7,7.3,0.4c5.3-0.5,7.1-0.3,16.1,1.5c5.4,1.1,9,2.8,10.6,5.1
			c1.2,1.7,5,4.6,7.4,5.6c2,0.8,2.5,0.7,7.1-2c2.4-1.4,4.6-4.7,5.8-8.5c1-3.3,1.2-3.5,3.1-3.7c4.2-0.6,10.5-9.2,11.7-16l0.3-1.9
			l0.6,1.8c0.8,2.4,1.5,2.6,3.8,0.9c4.3-3.2,7.3-7.4,9.5-13.5c2.3-6.5,2.3-8.5-0.1-12.4l-1.5-2.5l-4.7,0.1c-2.6,0.1-6,0.2-7.5,0.2
			c-1.6,0.1-3.6,0-4.5-0.1c-1.9-0.3-5.5,1.4-6.9,3.3c-0.5,0.7-1.1,2.1-1.3,3.2c-0.3,1.6-0.5,1.8-1.3,1.3c-1.4-0.9,0.6-6.1,3.1-7.9
			c1.1-0.8,2.4-1.4,2.9-1.3c0.5,0,1.5,0.1,2,0.2c0.6,0,1-0.1,0.9-0.3c-0.1-0.2-2-0.7-4.2-1c-8-1.3-9.2-1.5-13.2-2.8
			c-2.2-0.7-4.3-1.1-4.6-0.9s-1,0.2-1.6-0.1c-0.6-0.2-2.7-0.2-4.7,0.1c-6,0.8-11.1,0.9-15.2,0.2c-4.7-0.8-7.5-0.9-7.8-0.2
			c-0.1,0.3-0.6,0.3-1.2,0s-3.2-0.9-6-1.5c-8.1-1.6-13.7-3.4-30.4-9.7c-16-6.1-34.6-12.7-40.6-14.5c-14.8-4.3-23.8-7.6-28.5-10.4
			c-16.4-9.6-23.5-14-27.2-16.7c-2.3-1.7-7.8-5.5-12.1-8.4c-9.2-6.2-10.4-7.3-15.2-13.5c-10.6-13.5-17.4-26.5-22.3-42.2L39.6,403.7z
			 M-1.8,547.8c-2.3-2.4-1.1-2.4,2-0.1c1.5,1.1,3.9,2.3,5.4,2.7c2,0.5,2.6,0.9,2.2,1.3C7,552.6,0.1,549.8-1.8,547.8z M-1.7,544.3
			c-1.7-1.1-4-4.1-3.9-5.1c0-0.6,0.5-0.5,1.6,0.2c0.9,0.6,0.4-0.3-1.3-2.4c-3.3-3.9-5.3-10.2-3-9.2c0.4,0.2,1,0.9,1.5,1.8
			c0.4,0.8-0.3-1.1-1.7-4.2c-2.9-6.6-6.5-17.5-6.1-18.4c0.7-1.6,2,0.9,6.1,11.4c2.4,6.3,5.5,12.9,6.8,14.9c3.1,4.6,7.6,7.7,12,8.5
			c3.9,0.7,10.9,3.5,12.1,4.9c2.7,3.3-1.4,2.3-17.4-4.4c-1.2-0.5-2.8-1.4-3.6-1.9c-1.2-0.9-1.3-0.8-1,0c0.3,0.7,1.9,1.7,4.8,2.8
			c2.7,1.1,4.2,1.9,3.9,2.3c-0.5,0.6-8.4-2.5-10.3-4c-0.7-0.6-0.4-0.1,0.6,1.1c1,1.2,3,2.6,4.6,3.2c1.5,0.6,2.6,1.4,2.5,1.7
			C6.1,548,0.8,546-1.7,544.3z M-1.8,537.1c-0.4-0.6-1.4-2.1-2.2-3.3c-2.1-3.2-2.4-2.8-0.4,0.7c0.9,1.7,2.1,3.2,2.6,3.4
			C-1.2,538.2-1.2,538-1.8,537.1z M229.2,621c-0.7-0.8-1.1-1.8-1-2.1c0.5-1.2,3.9-3.8,4.6-3.5c1,0.4,0.5,1.5-1.2,2.3
			c-2.2,1.1-1.8,2.6,1.2,3.8c2.7,1.1,3.6,2.4,1.7,2.3C232.8,623.9,230.5,622.6,229.2,621z M243.6,607.4c-0.9-0.7-0.6-2,0.3-1.5
			c0.2,0.1,2.1,0.9,4.3,1.8c2.9,1.2,3.6,1.7,2.9,2C250.1,610.1,245.1,608.5,243.6,607.4z M244.3,603.1c0-1.6,0.2-2.1,1.3-2.5
			c1.8-0.7,1.9,0.2,0.2,2.5l-1.5,2L244.3,603.1z M260.8,592.2c-0.1-0.2-0.9-0.8-1.8-1.3c-2.7-1.5-2.8-2-1.2-4.9
			c0.8-1.4,1.9-2.8,2.3-3.1c1.6-0.9,1.7,0.7,0.2,3.4l-1.5,2.7l1.9,1.3c1.8,1.1,2.6,1.3,6.6,1.3c1.7,0,1,1.2-1,1.5
			C264.7,593.4,261,592.8,260.8,592.2z M220.7,571.7c0.5-1.2,2-1.5,5-1c1.4,0.2,4.7,0,7.2-0.4c2.5-0.5,5.7-0.7,7.2-0.6
			s4.4,0.5,6.4,0.6c2.1,0.2,4.9,0.8,6.3,1.3c2.5,1,7.7,5.5,9.3,8.2c0.6,0.9,2.1,2,4.2,2.8c3.9,1.6,5,2.5,4.5,3.7
			c-0.2,0.6-0.6,0.6-1.2,0c-0.5-0.5-2.2-1.5-3.9-2.4c-1.9-0.9-4.9-3.3-7.6-6c-4.1-4.1-4.9-4.6-7.6-5.2c-1.7-0.4-4.4-0.8-6-0.9
			s-3.5-0.4-4.2-0.7c-0.7-0.3-3.2-0.1-5.5,0.4c-4.2,0.9-12.5,1.6-13.7,1.1C220.7,572.6,220.5,572.1,220.7,571.7z M232.5,558
			c0.3-0.7,4.5-1.6,5.4-1.3c0.4,0.2,2.9-0.2,5.5-0.7c2.6-0.6,6.3-0.9,8.3-0.7c2,0.2,5.9,0.6,8.8,0.8c5.8,0.5,8.5,1.7,11.5,5.3
			c1,1.2,3.1,2.8,4.8,3.7c4.9,2.5,6.6,3.7,6.1,4.1c-0.3,0.2-1.8-0.4-3.5-1.2l-3-1.5l-1.4,3.6c-1.3,3.2-1.3,3.6-0.2,4.5
			c0.7,0.5,2.3,1.2,3.6,1.5c1.7,0.4,2.3,0.8,1.9,1.2c-0.7,0.8-6.9-1.5-8.1-2.9c-0.8-1-0.7-1.6,0.8-4.8c1.5-3.2,1.6-3.7,0.7-4.1
			c-0.6-0.2-1.8-1.3-2.8-2.4c-2.8-3.3-6.1-4.9-9.7-4.9c-1.7,0-5.3-0.2-8-0.6c-4.4-0.6-7-0.4-12.3,0.9c-1.8,0.4-7.4,0.5-8.3,0.1
			C232.5,558.6,232.4,558.3,232.5,558z M271.4,555.8c-1.1-1.2-1.9-2.4-1.7-2.8c0.2-0.4,0.6-0.3,1.1,0.2c3.7,3.7,9,5.5,15.5,5.3
			c5.1-0.2,4.9-0.2,4.5,0.8c-0.4,0.9-5.2,1.3-9.8,0.9C277,559.8,273.8,558.3,271.4,555.8z M280.2,557.1c0.2-0.5,7.8-0.6,8.4-0.1
			c0.3,0.3-1.1,0.6-3.2,0.7C281.8,557.9,279.9,557.7,280.2,557.1z M281.7,555c0.2-0.5,5.8-0.7,6.4-0.2c0.3,0.3-0.8,0.6-2.5,0.7
			C282.6,555.6,281.5,555.5,281.7,555z M290.4,555.7c0.1-3.7,1-6.1,3.2-8.8c1.4-1.7,2.5-2.5,3.1-2.3c0.7,0.3,0.5,1-1.1,4.1
			c-1.1,2.1-2.5,5-3.1,6.5C291.2,558.2,290.3,558.4,290.4,555.7z"/>
		</g>
	</g>
</svg>
