<?xml version="1.0" encoding="utf-8"?>
<svg version="1.1" id="JustinLee" xmlns="http://www.w3.org/2000/svg" x="0px" y="0px"
	 viewBox="0 0 566.9 566.9" style="enable-background:new 0 0 566.9 566.9;" xml:space="preserve">
	<style type="text/css">
		.st0 {
            fill: #FFFFFF;
            stroke: #000000;
            stroke-miterlimit: 10;
        }
	</style>
	<g id="foot" transform="translate(182.11221,-249.3249)">
		<g>
			<path id="JustinLee" class="st0" d="M124.4,732.7c4.2-0.6,7.2-1.7,12-4.4c8.5-4.7,13.1-9,16.8-15.4c7.2-12.5,8.3-28.2,3.7-53.2
			c-3.1-16.6-4-37.3-2.2-48c0.5-2.9,1.3-11.4,1.8-18.7c0.5-7.4,1.7-18.3,2.7-24.3c1-6,2.2-13.6,2.7-16.9c0.5-3.3,1.5-8.2,2.3-10.9
			c0.8-2.7,1.6-5.7,1.8-6.6c0.2-1,1.5-4.7,2.9-8.2c1.4-3.6,3.8-10.2,5.3-14.7c1.5-4.5,3.9-11.1,5.3-14.6c1.4-3.5,3.4-10.3,4.4-15.2
			c1.7-7.6,1.9-10.5,1.5-21.4c-0.4-11.1-0.8-13.6-3.5-22.6c-1.7-5.6-4.3-12.6-5.8-15.7c-1.5-3.1-2.7-5.7-2.7-5.8
			c0-0.1-0.5-0.2-1.2-0.2c-1.7,0-3.1-16.5-2.8-32.2c0.2-11.7,0.1-12.7-2.2-18.8c-2.6-7-6.4-12.5-14.9-21.8c-6.4-7-7.9-8.1-13.8-9.9
			c-3.8-1.2-4.9-1.3-8.8-0.4c-15.3,3.3-20.6,8.8-19.7,20.6c0.2,2.9,0.6,5.9,0.9,6.7c0.3,0.8,1.1,3.2,1.9,5.2c0.8,2.1,1.4,5,1.4,6.5
			c0,1.5,0.4,2.9,0.8,3.2s1,1.6,1.3,3.1c0.3,1.5,1.2,4.2,2,6.1c1.4,3.1,2,3.5,8.9,6.3c7.3,2.9,9.1,4.7,5.6,5.6
			c-0.9,0.3-2.9-0.1-4.4-0.7c-1.5-0.6-2.8-1.2-3.1-1.2c-0.9,0,3,10.9,4.5,12.7c0.9,1.1,3.9,3.2,6.7,4.8c7.2,4.1,6.6,6.5-1,3.8
			c-3.7-1.3-14.3-9.8-14.3-11.5c0-0.9-1.2-1-6.2-0.6c-5.7,0.5-6.2,0.4-6.2-1c0-0.9,1-1.8,2.7-2.4c2-0.8,2.6-1.4,2.2-2.5
			c-0.3-0.8-0.5-2.5-0.5-3.7l0-2.2l-2.2,1.8c-3.5,2.8-4.3,1-1.7-3.4c2.2-3.6,2.2-4.1,1.7-12.3c-0.5-7.3-1.6-13.3-3.7-19.6
			c-0.5-1.4-5.3-2.8-9.7-2.8c-3.4,0-10.1,3.5-12.9,6.8c-1.8,2.1-2.1,3.4-2.1,7.8c0.1,7.8,5.1,15.6,14,21.9c1.3,0.9,2.8,1.7,3.2,1.7
			s0.8,0.5,0.8,1.1c0,1.4-3.2,2.9-5.4,2.4c-2-0.5-2.5,0.7-1.6,3.6c1.5,4.6,0.9,9.8-1.6,13c-1.3,1.7-2.8,3.1-3.4,3.1
			c-0.6,0-1.9,0.8-3.1,1.9c-1.1,1-3,1.9-4.2,1.9c-1.2,0-1.9,0.3-1.7,0.6c0.6,0.8-1.2,2.6-4.3,4.3c-3.5,1.9-11.9,8.7-11.9,9.6
			c0,1.5-6,8-12.8,13.7c-3.9,3.3-8.9,7.8-11.2,9.9s-4.5,3.9-5.1,3.9c-1.3,0-1.4-2.6-0.1-4.5c0.7-1.1,0.6-1.4-0.4-1.4
			c-0.7,0-1.4-0.3-1.4-0.7s0.7-0.7,1.6-0.7c1.9,0,6.3-2.7,6.3-3.9c0-0.4,1.3-2.5,2.9-4.6c2.6-3.4,2.9-4.3,2.7-8.8
			c-0.2-5.6-2.7-11.5-6.1-14.2c-1.7-1.4-2.5-1.6-4.2-0.9c-2.4,0.9-10.2,11.4-11,14.7c-0.3,1.3-1.1,3.1-1.9,4.1
			c-1.1,1.4-1.2,3.7-0.7,13.1c0.6,11.6,0.5,12.9-3,26c-2.5,9.4-3.1,22.8-1.2,29.7c2.1,8,5.6,19.5,8.1,26.5c5,14.1,7.9,26.4,8.7,36.7
			c0.3,3.9,1.7,14.2,3.2,22.9c1.5,8.7,2.9,17.4,3.1,19.5c0.3,2.1,0.8,4.3,1.3,5c0.4,0.7,0.8,2.1,0.8,3.2c0,1.1,0.9,5,2.1,8.9
			c4.4,14.5,5.9,20.8,6.3,25.8c0.5,6.5,1.7,14.3,3.9,24.2c3.2,14.5,4.2,17.6,7.8,24.1c3,5.5,4.7,7.5,11.2,12.9c5.8,4.8,9.2,7,14,9
			C99.6,732.9,112.7,734.5,124.4,732.7z M55.7,439.7c1.5-2.2,4-5.6,5.4-7.6s2.5-3.8,2.3-3.9c-0.2-0.2-1.7,0.6-3.3,1.6
			c-2.9,1.8-5.3,2.3-6.4,1.4c-0.3-0.2,1.5-2.2,3.9-4.3c5.1-4.5,5.6-5.8,5.6-12.9c0-4.8-2.6-12.6-4.9-14.9c-1.2-1.1-8.3,1.8-10.8,4.4
			c-6.8,7.3-9.8,16.3-4.9,15c1.3-0.3,1.7-0.1,1.7,1.1c0,0.8,1.2,3.6,2.7,6.2c1.5,2.6,2.7,5.5,2.7,6.6c0,1.1,0.6,2.9,1.3,4.1
			s1.3,3.3,1.3,4.7s0.2,2.5,0.4,2.5C52.7,443.6,54.1,441.8,55.7,439.7z M80.7,418.8c1.8-1.5,3.7-3.7,4.3-4.9
			c1.3-2.7,1.9-8.7,0.8-8.2c-1.2,0.6-2-1.1-1.1-2.1c0.5-0.5,1.1-1.9,1.4-3.2s1-3.6,1.4-5.2c0.7-2.7,0.4-3.6-2.9-9.4
			c-4.1-7-5.3-8.2-8.6-8.2c-4.5,0-11.7,5.5-14.1,10.9c-2.1,4.7-1.7,6.2,2.8,11.4c1.9,2.2,3.8,4.8,4.3,5.9s1.6,2.1,2.5,2.3
			c2.5,0.6,2.9,3.8,0.6,4.9c-2.8,1.2-3,1.8-2,5.4c0.6,2.1,1.6,3.5,2.7,4C75,423.2,75.8,422.8,80.7,418.8z M120.2,395.9
			c0-0.7-0.6-2.2-1.4-3.2c-0.7-1-1.1-1.3-0.9-0.5c0.3,0.8,0.5,2.2,0.5,3.2s0.4,1.8,0.9,1.8S120.3,396.6,120.2,395.9z"/>
		</g>
	</g>
</svg>
