<?xml version="1.0" encoding="utf-8"?>
<svg version="1.1" id="lixin" xmlns="http://www.w3.org/2000/svg" x="0px" y="0px"
     viewBox="0 0 340.2 340.2" style="enable-background:new 0 0 340.2 340.2;" xml:space="preserve">
<style type="text/css">
	.st0{fill:#FFFFFF;stroke:#000000;stroke-miterlimit:10;}
</style>
    <g>
	<path class="st0" d="M186.5,279.2c-9.6,0-19.1,0-28.7,0c-0.7,0-0.9-0.2-1-0.9c-0.5-12.4-1.2-24.8-1.6-37.1c-0.1-4-1.3-7.4-3.5-10.5
		c-3.4-4.8-7.5-8.9-11.8-12.8c-4.7-4.2-9.7-8.1-14.8-11.8c-5-3.7-8.2-8.7-10.1-14.6c-1.6-4.8-3.7-9.3-6.8-13.3
		c-1-1.3-2.3-2.3-3.6-3.3c-2.1-1.6-4.1-3.4-5.9-5.4c-1.2-1.4-2.2-2.9-3-4.6c-1.8-3.9-4.6-6.9-7.9-9.7c-1.5-1.3-3.1-2.5-4.4-4
		c-2.8-3.2-1.8-6.7,2.2-8.2c1.6-0.6,3.2-0.6,4.8-0.4c3.6,0.4,7,1.4,9.9,3.7c1.8,1.4,3.1,3.1,4.4,4.9c2.5,3.5,5.4,6.5,9,8.9
		c3.9,2.7,7.3,6,10.4,9.6c0.6,0.7,1.2,1.4,2,2c1.1,0.8,2.1,0.9,3.3,0.3c2.6-1.4,4.3-3.5,4.9-6.4c1-4.9,2.4-9.8,4.1-14.5
		c1.2-3.3,1.4-6.5,0.8-9.8c-1-6.6-2.2-13.1-3.3-19.6c-1.8-10.2-3.4-20.4-4.6-30.7c-0.6-5.1-1.3-10.2-2-15.3c-0.2-1.5-0.3-3,0-4.5
		s1.2-2.5,2.7-3c1.1-0.4,2.3-0.7,3.5-0.9c1.5-0.3,2.7,0.2,3.8,1.2c1.7,1.5,2.7,3.5,3.2,5.7c1.7,7.7,3.3,15.3,5.2,22.9
		c1.3,5.3,2.1,10.7,3.2,16c0.7,3.6,1.3,7.1,2.3,10.6c0.6,2.1,1.6,4,3.2,5.5c0.5,0.5,1,0.9,1.5,1.2c1.7,0.9,3.2,0.6,4.4-0.9
		c1.1-1.4,1.6-3,1.9-4.7c0.5-2.5,0.6-5.2,0.9-7.7c0.8-8.2,1.6-16.3,3-24.4c1.1-6.7,1.7-13.5,2.4-20.2c0.5-4.7,1-9.4,2.5-13.9
		c0.8-2.3,2.1-3.9,4.5-4.6c0.7-0.2,1.5-0.2,2.2-0.1c1.9,0.4,3.6,1.3,5.1,2.6c1.2,1.1,1.7,2.5,1.5,4.1c-0.2,2.8-0.5,5.5-0.8,8.3
		c-1,10.5-2.4,20.9-3.5,31.4c-0.3,3-0.2,6-0.4,9c-0.3,5.2-0.5,10.3-0.8,15.5c-0.1,1.4,0.2,2.8,0.9,4.1c0.9,1.6,2.2,1.8,3.5,0.4
		c1-1.1,1.6-2.5,2.2-3.9c2.6-6.4,4.6-13,6.6-19.6c2.6-8.8,4.5-17.8,7-26.7c0.8-3,1.6-5.9,2.5-8.8c1.4-4.6,4.5-5.8,8.9-3.8
		c2.6,1.2,3.6,3.2,3.8,5.9c0.2,3.1-0.7,6.1-1.4,9.1c-2.5,10.6-5.1,21.3-7.6,31.9c-0.8,3.4-1.9,6.7-2.8,10.1
		c-1.1,4.1-1.4,8.4-1.4,12.6c0,0.6,0.1,1.2,0.2,1.8c0.3,1,0.9,1.3,1.8,0.6c0.6-0.5,1.1-1.1,1.6-1.8c2.6-3.6,4.6-7.6,6.7-11.4
		c4.8-8.9,9.2-18,13.8-27c1.1-2.2,2.6-4.1,4.5-5.7s4.8-2,6.8-0.7c2.2,1.5,3.1,3.6,2.6,6.4c-0.4,2.4-1.6,4.6-2.5,6.8
		c-4.2,10-8.5,20-13,29.9c-1.6,3.6-3.7,6.9-5.5,10.4c-2.4,4.8-4.3,9.7-5.2,15.1c-0.3,1.8-0.4,3.6-0.4,5.4c0,5.7-0.2,11.3-0.9,17
		c-1.1,8.9-3.6,17.4-7.8,25.4c-1.3,2.5-2.2,5.1-2.7,7.8c-0.5,2.4,0.1,4.7,0.6,7c3.4,15.7,6.9,31.5,10.3,47.2
		c0.6,2.7,1.2,5.4,1.8,8.1c0.2,0.7,0.1,0.9-0.7,0.9C205.7,279.2,196.1,279.2,186.5,279.2z"/>
</g>
</svg>
