<?xml version="1.0" encoding="utf-8"?>
<svg version="1.1" id="lixin" xmlns="http://www.w3.org/2000/svg" xmlns:xlink="http://www.w3.org/1999/xlink" x="0px"
     y="0px"
     viewBox="0 0 340.2 340.2" style="enable-background:new 0 0 340.2 340.2;" xml:space="preserve">
<style type="text/css">
	.st0{fill:#FFFFFF;stroke:#010101;stroke-miterlimit:10;}
</style>
    <g>
	<path class="st0" d="M207.9,238.1c-4.3-0.2-8.3-0.7-12.4-0.1c-4,0.7-6,2.6-6.8,6.6c-1.1,5.6,0.2,11.1,1.2,16.6
		c0.5,2.7,0.9,5.3,1.6,8c0.4,1.4-0.1,2-1.5,2.1c-16.5,2.4-32,0.3-45.9-9.5c-9.2-6.5-19.2-11.4-30.3-13.4c-2.8-0.5-5.7-0.9-8.5-0.9
		c-1.4,0-1.7-0.5-1.3-1.7c0.4-1.1,0.6-2.3,1.1-3.4c6-14,7.2-28.6,5-43.6c-1.4-9.2-5.2-17.5-8.6-26c-3.4-8.5-6.6-17.1-8.5-26.1
		c-2.5-12.2-0.1-23.8,4.6-35c6.2-14.6,15.4-26.8,29.1-35.2c9.5-5.9,20.1-8.2,31.2-8.6c15.6-0.6,30.4,2.3,44.8,8.4
		c16.3,6.9,26.1,19.3,30.2,36.4c1.8,7.6,2.7,15.4,3.3,23.2c0.1,1.2,0.2,2.5,0.5,3.8c0.5,2.4,0.1,4.5-1.6,6.4
		c-1.9,2.1-1.7,4.7-0.8,7.2c2.3,6,5.9,11.4,8.9,17.2c1.8,3.4,3.7,6.7,4.7,10.5c0.9,3.6-0.2,5.9-3.6,7.2c-2,0.7-4.1,1.1-6.2,1.8
		c-3,1-3.9,3.1-2.5,6c0.2,0.5,0.5,1,0.7,1.5c1.2,2.9,0.3,5-2.7,5.9c-2.5,0.7-2.6,1.1-0.8,2.9c1.3,1.3,0.8,4.4-0.8,5.7
		c-3.3,2.7-3.6,3.5-1.9,7.5c2,4.6,1.9,8.9-0.9,13.2c-2.2,3.3-5.3,4.7-8.9,5.3C216,238.6,211.8,238.2,207.9,238.1z"/>
</g>
</svg>
