<?xml version="1.0" encoding="utf-8"?>
<svg version="1.1" id="JustinLee" xmlns="http://www.w3.org/2000/svg" x="0px" y="0px"
     viewBox="0 0 340.2 340.2" style="enable-background:new 0 0 340.2 340.2;" xml:space="preserve">
<style type="text/css">
	.st0{fill:#FFFFFF;stroke:#000000;stroke-miterlimit:10;}
</style>
    <g id="leg">
	<g>
		<path class="st0" d="M154.6,54.8c29.4,0,58.8,0,88.1,0c0.7,1.3,0.1,2.3-0.4,3.4c-3,7.2-7.3,13.6-12.4,19.4
			c-13.9,15.9-30.5,28.3-48.9,38.3c-4.1,2.3-8.1,4.8-11.3,8.5c-0.8,0.9-1.5,1.9-2.2,2.9c-1.5,2.3-1.4,4.3,0.1,6.7
			c3.5,5,6.8,10.2,9.3,15.9c3.7,9,4.6,18.2,3.1,27.8c-2.1,13.1-3.2,26.1-2.4,39.4c0.9,13.8,3.6,27.1,10,39.6c1.2,2.3,2.3,4.7,3.5,7
			c1.5,3.2,2.4,6.6,2.2,10.2c-0.4,4.2-2.2,7.6-5.6,10c-2.2,1.5-4.7,1.5-7.1,1.5c-5.9,0-11.8-0.1-17.7-1.1c-4.2-0.7-8.5-0.7-12.7,0
			c-3.6,0.5-7.3,0.8-10.9,0.9c-7.6,0.2-15.1,0.8-22.6,0c-3.3-0.4-6.5,0-9.7,0.3c-2,0.2-4.1,0.1-5.9-0.7c-2.6-1.2-3.4-3.6-3.8-6.1
			c0-0.7,0-1.5,0-2.3c0.5-1.4,1.6-1.9,2.9-2.3c1.9-0.6,3.9-1.1,5.9-1.4c7.2-1.4,14-4.4,20.8-7.1c3.6-1.4,7.3-2.3,11-3.3
			c9-2.6,12.9-10.2,11.9-19.3c-1.9-17.1-8.1-32.9-14.5-48.7c-2.3-5.9-5.1-11.4-6.8-17.6c-1.5-5.5-2.1-11.2-2.6-16.9
			c-0.7-6.6-2.3-12.8-5.8-18.5c-2.5-4.2-4.5-8.7-5.2-13.8c-0.6-4.7,0.5-9,3.6-12.3c3.6-4,5.4-8.5,7.1-13.4
			c5.6-16,14.2-30.3,25.1-43.3C151.5,56.6,152.7,55.4,154.6,54.8z"/>
	</g>
</g>
</svg>
