<?xml version="1.0" encoding="utf-8"?>
<svg version="1.1" id="lixin" xmlns="http://www.w3.org/2000/svg" x="0px" y="0px"
     viewBox="0 0 340.2 340.2" style="enable-background:new 0 0 340.2 340.2;" xml:space="preserve">
<style type="text/css">
	.st0{fill:#FFFFFF;stroke:#000000;stroke-miterlimit:10;}
</style>
    <g>
	<path class="st0" d="M156.9,266.1c-2.1-0.7-2.1-0.9-1.7-3.1c0.5-2.5,0.5-2.5,3-2.9c1.6-0.3,3-1,4.2-2.1c1.8-1.8,3.6-3.7,5.2-5.7
		c1.1-1.3,1.8-2.8,1.8-4.6c0.1-1.9,0.5-4,2.4-4.9c2-1,3.8,0.1,5.5,1.1c0.1,0,0.2,0.1,0.2,0.2c1.8,2.2,3.7,1.6,5.9,0.4
		c4.4-2.5,8.8-5.1,13-7.8c3-1.9,6.2-3.5,9.5-4.9c0.7-0.3,1.7-0.5,1.7-1.3c0-0.8-1.1-0.8-1.7-1.1c-5.1-2.2-10.5-3.7-15.4-6.4
		c-6-3.2-11.7-6.7-17.2-10.6c-1.6-1.1-2-1.1-2.6,0.8c-1.6,5.2-3.1,10.4-4.6,15.6c-1.4,4.6-3,9.1-5,13.5c-1.5,3.3-4.1,5.6-7.3,7.1
		c-2.2,1.1-4.7,0.8-7-0.1c-3.9-1.7-7.6-3.7-11-6.2c-4.8-3.5-10.1-6.4-14.6-10.3c-3.9-3.3-8.1-6.1-12.4-8.7
		c-3.7-2.2-7.8-3.2-11.7-4.8c-4.4-1.9-9-3.1-13.4-4.8c-2.9-1.1-6-1.3-8.9-2.1c-0.5-0.1-1-0.2-1.5-0.4c-0.6-0.2-1.2-0.5-1-1.3
		c0.2-0.8,0.6-1.3,1.5-1.3c0.3,0,0.5,0,0.8,0c0.8,0,0.9-0.4,0.5-1c-0.1-0.2-0.3-0.5-0.4-0.7c-0.1-0.3-0.1-0.6,0.1-0.9
		c0.3-0.3,0.6-0.1,0.8,0.1c0.4,0.2,0.8,0.6,1.2,0.2c0.4-0.4,0-0.7-0.1-1.1c-0.3-0.6-0.2-1.1,0.3-1.4c0.6-0.5,1.5-0.8,2.1-0.3
		c1.1,1,2.4,0.9,3.8,0.9c2.2,0.1,4.4,0.7,6.5,1.2c3.4,0.9,6.7,0.3,10-0.2c3.2-0.5,4.9,0.7,5.2,3.9c0.2,2.3,1.4,3.6,3.3,4.4
		c4.5,2.1,9.2,3.5,13.8,5.2c3.9,1.4,7.8,2.9,11.8,4.1c3.5,1.1,6.6,3.1,9.6,5.2c0.8,0.5,1.5,1.1,2.4,1.5c0.7,0.4,1.2,0.2,1.3-0.7
		c0.1-1.2,0.2-2.5,0.2-3.7c0-7.2,0.7-14.4,1.5-21.6c0.7-5.9,1.2-11.7,1.9-17.6c0.7-5.2,2.6-9.7,6.5-13.4c1.5-1.4,2.7-3.1,4.2-4.4
		c3.6-3.2,3.6-7.1,1.7-10.9c-3.2-6.4-7-12.4-11.3-18c-1.3-1.6-3-2.1-5-1.7c-3.6,0.8-7.1,2.3-10.6,3.5c-6.7,2.2-13.5,4-19.9,6.7
		c-3.4,1.4-7,1.5-10.6,1.6c-5.6,0.1-11.1,0-16.7,0c-2.6,0-4.6,1.4-6.5,2.9c-0.8,0.6-0.9,1.7-0.9,2.7c-0.1,1.8,0.1,3.6-0.2,5.5
		c-0.1,0.5-0.1,1.2-0.7,1.3c-0.7,0.1-0.9-0.5-1.2-1.1c-0.5-1.3-0.8-2.7-0.8-4c-0.1-3.3-1.8-5.6-4.5-7.3c-2.6-1.6-5.2-3.1-7.3-5.3
		c0-0.4,0-0.7,0-1.1c0.5-0.1,0.8,0.2,1.2,0.4c0.7,0.4,1.5,0.9,2.2,1.2c2.2,1,3.1,0.9,4.9-0.9c0.7-0.7,1.4-1.1,2.3-1.1
		c0.5,0,0.9-0.2,1.2-0.5c0.9-0.9,1.8-0.8,2.6-0.1c2.5,2.5,5.5,2.1,8.5,1.5c6.8-1.5,13.5-3.4,20.4-4.8c1.3-0.3,2.6-0.6,3.9-0.8
		c3.5-0.4,6.8-1.6,10-3.1c4.2-2,8.8-3.2,12.8-5.6c1.9-1.1,3.7-2.3,5.7-3.2c2-1,4.3-1.1,6.4-1.6c2.9-0.7,2.9-0.8,1.1-3.1
		c-1.8-2.4-3.9-4.5-6.1-6.5c-4.2-3.9-5.8-8.9-4.6-14.4c1.5-7.1,6.5-12.1,14.8-11c1.5,0.2,2.7,0.8,3.8,1.8c3,2.8,4.9,6.3,6.3,10.1
		c1.8,4.6,5,7.4,9.6,8.9c2.4,0.8,4.8,0.3,7.1,0.2c2.7-0.1,5.5-0.5,8.2-0.7c1.9-0.1,3.6-0.4,5.2-1.4c2.1-1.3,4.3-1.7,6.7-1.8
		c3.1-0.1,6.1-0.4,9.2-0.6c0.4,0,0.7,0,1-0.1c5.7-2,11.5-3.6,17-6.3c1-0.5,1.9-0.9,2.8-1.5c7-4.9,15-7.8,22.5-11.8
		c0.8-0.4,1.7-0.8,2.5-1.3c5.4-3.4,11.4-4.9,17.7-5.3c3.4-0.2,6.2-1.4,8.5-3.8c0.7-0.7,1.5-1.3,2.2-1.9c0.3-0.2,0.7-0.6,1.1-0.2
		c0.4,0.4,0.1,0.8-0.2,1.2c-0.8,1-1.6,2-2.4,3c-0.4,0.5-0.8,1-1.2,1.6c1.1,0.3,2-0.1,2.9-0.3c0.3-0.1,0.6-0.2,0.9-0.2
		c0.7-0.1,1.6-0.7,2,0.2c0.3,0.8-0.6,1.3-1.2,1.7c-1.3,0.9-3,1.1-4.5,1.6c-0.4,0.1-1,0.1-1,0.7c0,0.4,0.6,0.5,0.9,0.7
		c0.8,0.3,1.6,0.5,2.4,0.8c0.3,0.1,0.7,0.2,0.7,0.5c0,0.5-0.5,0.4-0.8,0.5c-2,0.1-4-0.2-6-0.4c0,0.1-0.1,0.2,0,0.2
		c0.3,0.4,1.1,0.8,0.6,1.4c-0.4,0.6-1.1,0.2-1.6,0c-0.7-0.3-1.2-0.7-1.9-1c-0.4-0.2-0.8-0.6-1.2-0.3c-0.5,0.3-0.5,0.8-0.5,1.3
		c0.1,0.7,0.2,1.4,0.3,2.1c0.1,0.9,0.2,1.8,0,2.6c-0.1,0.4-0.3,0.8-0.8,0.8c-0.4,0-0.7-0.3-0.8-0.6c-0.9-2.1-2.7-3.1-4.6-4
		c-2.2-1-4.3-0.9-6.3,0.6c-4,3-7.6,6.6-11.4,9.8c-3,2.6-6.2,5-9.5,7.3c-2.5,1.8-5.3,3-8.3,3.8c-3.7,1-7.1,2.6-10.7,3.6
		c-4.4,1.3-8.9,2.4-13.4,3.6c-0.9,0.3-1.9,0.6-2.8,0.8c-6.4,1.3-8.7,5.9-9.7,11.7c-0.4,2.7-0.1,5.4,0.1,8.1
		c0.3,5.7,0.4,11.5,0.1,17.2c-0.2,3.4-1.3,6.7-2.2,10c-1.8,7.1-3.1,14.3-4.4,21.5c-0.7,3.9,0.1,7.2,3.2,10c3.5,3.2,7.3,5.8,11.1,8.5
		c9.1,6.3,17.7,13.3,26,20.8c2.6,2.3,3.7,5.2,3.6,8.7c-0.1,3.2-1.5,5.4-4.4,6.7c-2.2,1-4.5,1.8-6.9,2.5c-6.3,1.8-12.6,3.8-19,5.1
		c-2.4,0.5-4.9,0.9-7.3,1.3c-4.7,0.8-9.1,2.7-13.3,4.9c-5.3,2.8-10.6,5.7-16.3,7.8c-2.1,0.8-4,1.8-5.6,3.3
		C158.7,266.1,157.8,266.1,156.9,266.1z"/>
</g>
</svg>
