<?xml version="1.0" encoding="utf-8"?>
<svg version="1.1" id="JustinLee" xmlns="http://www.w3.org/2000/svg" x="0px" y="0px" viewBox="0 0 340.2 340.2"
     style="enable-background:new 0 0 340.2 340.2;" xml:space="preserve">
<style type="text/css">
	.st0{fill:#FFFFFF;stroke:#000000;stroke-miterlimit:10;}
</style>
    <path class="st0" d="M287.6,113.9c-66.4-31.1-143.5,24.2-191,73.5c-3.6-3.2-7.7-5.8-12-7.3c-2.3-0.7-4.6,2.1-3.1,3.8
	c2.7,3,5.2,6,7.5,9c0.6,0.6,0.4,1.6-0.3,2.1c-11.3,7.7-22.6,15.5-33.8,23.2c-3.3,2.3-4.1,6.8-1.8,10.1c0.9,1.4,1.8,2.7,2.8,4
	c2.3,3.3,7,4.1,10.2,1.8c10.8-7.5,21.7-14.9,32.5-22.3c0,0,0.1,0.1,0.1,0.1c0.6-0.3,1.2-0.7,1.8-1c0.5,0,0.9,0.3,1.2,0.8
	c1.7,3.1,3.4,6.3,5,9.7c1,2.1,4.6,1,4.7-1.4c0.2-4.6-0.6-9.3-2.3-13.8c39.8-22.4,71-39.5,118.4-46.5c0.2-0.1,0.4-0.1,0.6-0.3
	c19.9-14.3,39.9-28.5,59.8-42.8C288.8,115.8,288.7,114.3,287.6,113.9z"/>
</svg>
