<?xml version="1.0" encoding="utf-8"?>
<svg version="1.1" id="JustinLee" xmlns="http://www.w3.org/2000/svg" x="0px" y="0px"
     viewBox="0 0 283.5 283.5" style="enable-background:new 0 0 283.5 283.5;" xml:space="preserve">
<style type="text/css">
	.st0{fill:#FFFFFF;}
	.st1{fill:#494949;}
	.st2{fill:#E0E0E0;}
	.st3{fill:#C5C5C5;}
	.st4{fill:#C8C8C8;}
</style>
    <g>
	<path class="st0" d="M94,136.7c-2.2,6.1-4.8,11.7-8.2,17.3c-1.7,2.8-2.1,6.1-1.9,9.1c0.4,13.3-2.8,26-6.9,38.4
		c-1.9,6.1-3,12.2-3.7,18.5c-0.1,1.4-0.7,1.7-1.8,1.8c-1.8,0.1-3.5,0.1-5.1-0.4c-4.4-1.2-5.3-2.1-5.7-6.5c-1-11.9-2.3-23.6-1.4-35.6
		c0.7-8.2,2.1-16.3,4.7-24c1.7-5,2.8-9.8,2.8-15.1c0-8.4,1.2-16.6,4.3-24.5c1.2-3.3,1.2-6.9,1.4-10.4c0.1-6.2,0.6-12.4,2.5-18.4
		c2.5-7.3,7.3-12.6,14.4-15.6c3.6-1.7,7.2-3.5,10.6-5.4c3.2-1.8,6.6-3,10.1-4.1c0.7-0.3,1.4-0.6,2.1,0.3c3.7,4.4,8.7,6.8,14.2,8.3
		c13.3,3.5,26,2.3,38.1-4.3c1.7-1,3.3-2.1,4.6-3.6c1-1.1,1.9-1.2,3.2-0.8c4.7,1.2,9.3,2.9,13.3,5.5c3.7,2.5,8.3,3.5,12,5.9
		c8.4,5.5,12.2,13.7,13,23.5c0.6,6.6,0.1,13.4,2.1,19.9c1.1,3.6,2.5,7,3.3,10.6c1,4.8,1.1,9.7,1,14.6c0,4,0.7,7.7,1.9,11.5
		c5.8,16.6,6.8,33.6,5.1,51c-0.4,4.8-1,9.7-1.4,14.6c-0.1,1-0.4,1.4-1.2,1.9c-3.5,1.9-6.9,1.5-10.2-0.1c-0.6-0.3-0.7-0.7-0.7-1.1
		c-1.2-12.3-6.1-23.8-9.1-35.6c-1.5-5.9-2.2-11.9-1.9-18c0.1-1.9,0.1-4,0-5.9c-0.1-2.6-0.8-5.1-2.5-7.3c-3.9-5.5-6.1-11.6-7.9-18.1
		c-0.3-0.8-0.6-1.7-0.8-2.5c-0.8-0.8-0.8-1.9-1.1-3c-1.4-6.1-1.7-12.2,0.8-18c0.7-1.8,0.4-3.7,1-5.1c-0.6,4.3-2.6,8.4-5,12.4
		c-3.9,7-9.9,10.5-18,10.5c-3.7,0-7.3,0.1-11.1-0.3c5.5,0.7,10.9,1.2,16.4-0.1c5-1.2,8.8-3.9,11.7-8.2c0.6-0.7,1-2.1,1.9-1.8
		c1.1,0.3,0.7,1.8,0.7,2.8c0.1,2.5,0.4,5.1,1,7.6c0.4,1.8,0.6,3.5,0.1,5.3c-1,2.8-2.3,5.4-3.9,7.9c-3.6,5.7-4,12-2.9,18.4
		c1.2,7,1.1,14-1,20.7c-0.6,1.7-0.4,3.3,0,5.1c1.2,4.8,1.9,9.8,2.3,14.9c0.1,1.2,0,1.7-1.5,1.2c-4.8-1.4-9.8-1.9-14.9-1.8
		c-1,0-1,0-1.4-1c1.5-5.3,2.6-7.3,10.4-9c-1.2,0.1-2.2,0.4-3.2,0.7c-2.9,0.7-5,2.3-6.2,5c-0.7,1.4-1.5,2.6-2.2,3.9
		c-13.4,0.3-26.7,3.3-40.1,4c-5.8,0.3-11.7,0.6-17.4-1.1c-4.8-1.2-4.7-1.4-4-6.1c0.6-3.6,1.2-7,2.3-10.5c0.6-1.8,0.7-3.6,0.3-5.4
		c-1.9-7.7-1.2-15.3,0.6-23.1c1.1-4.6,0.6-9.3-2.1-13.5c-1.1-1.9-2.3-3.9-3.5-5.8c-2.1-1.8-2.9-4.3-2.3-6.9
		c0.8-4.3,1.7-8.6,1.4-13.1c0-0.4-0.1-1,0.4-1.1c0.6-0.1,1,0.3,1.1,0.7c0.8,1.2,1.7,2.5,2.6,3.6c3.6,4.4,8.4,6.6,14.1,7
		c3.9,0.3,7.9,0.3,11.7-0.3c0.6,0,1.1,0,1.5-0.1c-1.5,0.3-3.5,0-5.1,0.6c-3.5,0-6.9,0.1-10.2-0.6c-6.1-1.1-10.8-4.3-13.7-9.5
		c-2.3-4.1-4.7-8.3-5.1-13c0.1,1.8,0.7,3.7,1.2,5.5c2.5,8,1.2,15.9-1.1,23.6C94.8,135.5,94.4,136.1,94,136.7z"/>
        <path class="st1" d="M186.9,133.8c0.3-2.6-0.7-5-1.1-7.5c-0.4-2.6-0.6-5.1-0.7-7.9c-3.5,5.5-8,9.3-14.5,10.5
		c-6.1,1.2-12,0.7-18.5-0.8c1.1-0.6,1.8-0.3,2.5-0.3c4.8,0.3,9.7,0.4,14.4-0.1c6.1-0.6,10.6-3.7,13.7-8.8c2.9-4.7,5.5-9.5,6.1-15.2
		c0.7,2.1,0.7,4.3,0,6.1c-3,7-2.5,14.2-0.7,21.4c0,0.1,0,0.4,0,0.6C186.8,131.8,187.8,133.3,186.9,133.8z"/>
        <path class="st1" d="M127.8,128.8c-4.3,0.8-8.6,0.7-13,0.4c-6.9-0.6-11.9-4.1-15.6-9.8c-0.4-0.6-0.6-1.4-1.4-1.8
		c0.6,4.7,0,9.4-1.2,13.8c-0.4,1.8,0.3,3.3,1,5c0.3,0.7,0.7,1.4,1,2.1c-0.7,0-1.4-0.1-1.7-0.8c-0.6-1.8-1.7-1.7-2.9-0.8
		c0.8-3.3,1.7-6.6,2.3-9.9c1.1-5.3,0.6-10.5-1-15.6c-0.7-2.3-1.5-4.8-0.8-7.9c0.7,1.4,0.4,2.3,0.7,3.3c1.4,5.5,3.9,10.8,7.5,15.2
		c4.1,5,9.9,6.2,16,6.6c1.7,0.1,3.5,0,5.1,0C125.3,128.4,126.7,127.7,127.8,128.8z"/>
        <path class="st1" d="M162.5,199.8c1.8-6.6,5.9-9.9,12.7-10.1c-0.6,1.1-1.8,1.5-2.8,1.7c-4.3,0.6-6.6,3.2-8,7
		c-0.1,0.4-0.4,0.7-0.7,1C162.8,198.1,163,200.2,162.5,199.8z"/>
        <path class="st1" d="M110.7,152.3c2.6,1.4,5.1,2.9,7.5,4.7c2.5,1.8,5.4,2.1,8.3,1.5c3-0.6,5.9-1.5,9.1-1.9c1.9-0.3,2.5-1.8,2.6-3.5
		c0.1-1.2,0.1-2.6,0.1-3.9c0-0.3,0-0.8,0.4-0.8c0.6,0,0.6,0.4,0.7,0.8c0.1,1.9,0.3,3.9,0,5.8c-0.3,1.7-1.2,2.8-3,2.9
		c-3.3,0.3-6.5,1.4-9.7,1.8c-4,0.6-7.7,0.3-10.9-2.8c-1.7-1.7-4-2.3-5.7-4C110,152.4,110.1,152.1,110.7,152.3z"/>
        <path class="st1" d="M140,139c0.4,0.4,0.6,0.8,0.7,1.4c0.6,1.8,1.9,2.8,3.9,2.9c0.8,0,1.7,0.1,2.5,0c3.5-0.4,6.8,0,9.9,1.5
		c2.8,1.4,5.5,0.1,8.2-1c0.8-0.3,1.5-1,2.5-0.7c-2.3,2.9-7.6,4.3-10.9,2.9c-2.5-1.1-5.1-1.5-7.9-1.2c-2.2,0.1-4.4,0.1-6.5-0.8
		C140.2,143,139.4,141.4,140,139L140,139z"/>
        <path class="st1" d="M166.6,153.1c0.1,3-2.8,6.2-5.9,7c-1.1,0.3-2.3,0.6-3.5,0.6c-4-0.1-8-0.3-11.9-0.4c-1.2,0-2.6-0.4-3.7-1.1
		c-1-0.6-1.5-1.5-1.4-3.3c1.8,3.3,4.7,2.9,7.3,3c2.9,0.1,5.9,0.4,8.8,0.6c3.5,0.3,6.1-1.1,8.2-3.9
		C165.2,154.8,165.9,153.9,166.6,153.1z"/>
        <path class="st1" d="M140,139c-0.7,0.3-0.8,1.1-1.2,1.5c-1,1.4-2.3,2.1-3.9,1.7c-4.1-1.2-7.9-0.7-11.3,1.7c-1.5,1.1-3.5,0.8-5.1,0
		c-2.1-1-3.6-2.3-5.1-4c0.7-0.7,1-0.3,1.4,0c1,0.7,1.8,1.4,2.8,2.1c2.1,1.5,4.3,1.8,6.4,0.4c3.2-2.2,6.6-2.8,10.4-1.7
		c2.5,0.7,3.6-0.1,4.7-2.5c0.1-0.4,0-1.4,0.8-1.1c0.8,0.3,0.1,1,0.1,1.4C139.8,138.7,139.8,138.9,140,139L140,139z"/>
        <path class="st1" d="M110.8,159.5c2.5,0.6,4.7,1.5,5.5,3.9c1.4,4.3,3.9,7.2,8.2,8.6c0.1,0,0.1,0.3,0.3,0.6
		c-0.7,0.4-1.4,0.1-2.1-0.1c-3-1-5.3-2.9-6.4-5.9c-0.8-2.6-1.9-5-5-5.8C110.9,160.4,110.7,160.1,110.8,159.5z"/>
        <path class="st1"
              d="M111.6,121c2.5,0,4.8,1.8,4.8,3.6c0,1.7-1.2,2.1-2.6,2.1c-2.2,0-5-1.9-5-3.6C108.9,121.9,110,121,111.6,121z"
        />
        <path class="st1" d="M174.6,123.1c0,1.7-1.4,2.5-2.6,3c-1.4,0.7-2.9,1-4.3-0.3c-0.7-0.6-0.7-1.4-0.4-2.2c0.8-1.9,4.1-3.2,6.1-2.5
		C174.2,121.6,174.6,122.1,174.6,123.1z"/>
        <path class="st1" d="M159.3,172.4c2.6-3,4.3-6.6,6.8-9.7c1.4-1.7,3-2.9,5.5-2.8c-4.8,1.8-6.4,6.4-9,10.1
		C161.8,171.2,161.1,172.4,159.3,172.4z"/>
        <path class="st1" d="M116.9,200.9c-0.8-0.1-0.8-0.8-1-1.4c-0.3-1.1-0.7-2.1-0.8-3.2c-0.7-2.9-2.1-5-5.3-5.5c-0.4,0-1,0-1.2-0.6
		C113.2,188.9,118.1,195.1,116.9,200.9z"/>
        <path class="st2" d="M141.6,171.1c-0.1,1.4-1.1,2.2-2.5,2.3c-1.1,0.1-1.7-0.8-1.5-1.8c0.3-1.2,0.4-2.8,2.2-2.8
		C141.1,168.8,141.5,169.8,141.6,171.1z"/>
        <path class="st3"
              d="M127.8,128.8c-1.2-0.8-2.6,0-3.9-0.4c2.2-0.3,4.6-0.6,7.2-0.8C130,128.8,128.9,128.8,127.8,128.8z"/>
        <path class="st4"
              d="M110.7,152.3c-0.1,0.1-0.4,0.4-0.6,0.6c-0.6-0.7-1.2-1.4-1.9-2.2C109.6,150.6,110.1,151.4,110.7,152.3z"/>
        <path class="st0" d="M113.8,125.5c-1.7,0-3.9-1.4-3.7-2.3c0.1-0.8,0.8-0.7,1.4-0.8c1.8,0,3.6,1.1,3.6,2.1
		C115.1,125.5,114.4,125.5,113.8,125.5z"/>
        <path class="st0" d="M169.7,125.5c-0.6-0.1-1.4,0-1.2-1.1c0.1-1.1,2.2-2.2,3.9-2.1c0.6,0,1.1,0,1.2,0.8
		C173.5,124.1,171,125.6,169.7,125.5z"/>
        <path class="st1" d="M139.5,170c0.6,0,1,0.3,0.8,0.8c-0.1,0.7-0.4,1.2-1.1,1.2c-1,0.1-0.7-0.7-0.7-1.1
		C138.4,170.2,139,170.1,139.5,170z"/>
</g>
</svg>
