<?xml version="1.0" encoding="utf-8"?>
<!-- Generator: Adobe Illustrator 22.0.1, SVG Export Plug-In . SVG Version: 6.00 Build 0)  -->
<svg version="1.1" id="Capa_1" xmlns="http://www.w3.org/2000/svg" xmlns:xlink="http://www.w3.org/1999/xlink" x="0px" y="0px"
	 viewBox="0 0 512 512" style="enable-background:new 0 0 512 512;" xml:space="preserve">
<style type="text/css">
	.st0{fill:#FFFFFF;}
</style>
<g>
	<path class="st0" d="M256,69.5C153.1,69.5,69.5,153.1,69.5,256S153.1,442.5,256,442.5S442.5,358.9,442.5,256S358.9,69.5,256,69.5z
		 M256,428.1c-94.9,0-172.1-77.2-172.1-172.1S161.1,83.9,256,83.9S428.1,161.1,428.1,256S350.9,428.1,256,428.1z"/>
	<path class="st0" d="M126.7,175.3l250.7,166.2c5.5,3.6,11.8,3.9,14,0.7s-0.5-9-6-12.6L134.6,163.3"/>
	<path class="st0" d="M134.6,163.3c-5.5-3.6-11.8-3.9-14-0.7c-2.2,3.3,0.5,9,6,12.6"/>
</g>
</svg>
